<svg version="1" xmlns="http://www.w3.org/2000/svg" width="317.333" height="317.333" viewBox="0 0 238.000000 238.000000"><path d="M1 119v119h237V0H1v119zm42 .4c0 1.7-.7 2.6-2.5 3-4.9 1.2-5.6 3.9-5.3 20.2l.3 14.9h30l.3-14.9c.3-16.6-.4-18.9-5.8-20.1-2.3-.5-3-1.2-3-3.1V117h32v2.4c0 1.8-.8 2.7-3 3.5-1.8.6-3.4 2.1-4 3.6-1.3 3.4-1.3 72.5 0 75.9.5 1.5 2.4 3.2 4.5 4.1 2.6 1 3.6 2 3.3 3.2-.3 1.6-1.9 1.8-16.1 2.1l-15.7.3v-2.5c0-1.7.7-2.6 2.5-3 5-1.3 5.6-3.7 5.3-22.7l-.3-17.4h-30l-.2 17c-.3 19.1.2 21.4 5.5 22.9 2.4.7 3.2 1.4 3.2 3.2v2.4H28.1c-12.4 0-16-.3-16.4-1.3-.7-1.8.2-3 3.6-4.5 1.5-.6 3.2-2.3 3.7-3.8 1.3-3.4 1.3-72.4 0-75.9-.5-1.4-2.2-3-3.7-3.6-3.2-1.2-4.3-2.7-3.6-4.6.4-1 4-1.3 15.9-1.3H43v2.4zm91.8-.1c.3 1.2-.7 2.2-3.3 3.2-2.1.9-4 2.6-4.5 4.1-1.4 3.5-1.3 67.8 0 72.6 1.4 4.9 3.3 5.8 12.2 5.8 9.4 0 11.1-1.2 15.5-10.7 1.9-4.2 3.9-7.3 4.6-7 1.9.6 1.8 7.5-.1 16.2l-1.7 8-28.3.3-28.3.2.3-2.2c.2-1.7 1.3-2.5 4.1-3.1 2.7-.7 4.1-1.7 4.8-3.4 1.5-3.9 1.1-74.3-.4-77.3-.7-1.4-2.6-2.8-4.5-3.4-2.4-.7-3.2-1.4-3.2-3.3V117l16.2.2c14.6.3 16.3.5 16.6 2.1zm73.2-1.2c9.8 2.2 15.4 8.6 16.6 19.1 1.1 9.5-2.8 18-9.6 20.8-3.6 1.5-3.8 2.6-.5 3.4 3.6.9 9.3 6.3 11.7 11 2.6 5.1 3.4 14.8 1.8 21.5-1.8 7.4-6.1 12.8-12.8 15.9-5.5 2.6-6.4 2.7-26.5 3l-20.8.4.3-2.8c.2-2.2 1-3 3.6-3.6 2.1-.6 3.6-1.7 4.2-3.4.6-1.4 1-18 1-38.7 0-39.1-.1-40.2-5.3-40.9-1.6-.2-2.2-1-2.2-2.8 0-2.3.5-2.5 5.5-3.1 9.4-1 28.3-.9 33 .2z"/><path d="M192.4 125.3c-.2.7-.3 8.5-.2 17.2l.3 16 4.2-.1c8.4-.1 12.3-5.5 12.3-16.9 0-7.3-2.3-13.2-6.2-15.9-2.7-1.9-9.7-2.1-10.4-.3zM192.7 165.7c-.4.3-.7 8-.7 17 0 20.8 1 23.3 9.4 23.3 3.7 0 7.7-3.6 9.6-8.5.7-1.7 1.2-6.7 1.3-11.2 0-10-2.7-16.4-8.3-19.4-3.4-1.9-10-2.6-11.3-1.2z"/></svg>